<svg width="258" height="419" viewBox="0 0 258 419" fill="none" xmlns="http://www.w3.org/2000/svg">
<path fill-rule="evenodd" clip-rule="evenodd" d="M258.151 77.4882L236.921 39.024L257.793 0.260742L279.022 39.024L258.449 77.4882H258.151ZM258.449 419C258.449 419 227.559 419 205.793 414.334C184.265 409.668 162.44 402.43 142.522 389.927C122.545 377.425 115.091 362.111 115.091 358.343C115.091 358.343 127.256 347.695 131.311 344.584C138.467 338.961 151.288 332.381 151.288 332.381C151.288 332.381 158.743 342.73 174.068 348.951C189.334 354.873 202.453 359.599 225.83 362.41C247.525 365.02 257.149 364.692 258.421 364.631C259.728 364.692 269.59 365.02 291.008 362.41C314.384 359.599 327.503 354.933 342.769 348.951C358.035 343.029 365.549 332.381 365.549 332.381C365.549 332.381 378.311 338.961 385.526 344.584C389.581 347.695 401.746 358.343 401.746 358.343C401.746 362.111 393.934 377.425 374.315 389.927C354.338 402.43 332.513 409.608 311.045 414.334C289.517 419 258.687 419 258.687 419H258.449ZM258.421 364.631L258.27 364.624H258.568L258.421 364.631ZM215.394 305.761C230.845 303.131 255.583 302.961 258.715 302.95C261.816 302.961 286.31 303.131 302.04 305.761C307.049 306.359 330.425 309.53 350.045 316.708C369.366 323.886 383.737 334.175 388.389 337.645C392.742 341.114 401.806 348.293 401.806 348.293C399.301 328.911 366.265 314.554 360.957 312.341C360.455 312.166 359.671 311.852 358.612 311.429C348.512 307.396 313.376 293.366 258.715 293.259L259.343 293.258H258.091L258.715 293.259C201.053 293.37 164.789 308.805 157.274 312.004L157.267 312.007L156.884 312.169L156.477 312.341C151.169 314.495 118.133 328.911 115.628 348.293C115.628 348.293 124.394 341.114 129.045 337.645C133.399 334.235 147.77 323.886 167.389 316.708C184.232 310.802 203.624 307.674 212.133 306.301C213.536 306.075 214.642 305.896 215.394 305.761ZM106.623 63.7296L137.155 95.3145H137.454L147.174 52.4835L116.582 20.8986L106.623 63.7296ZM379.384 95.3145L409.976 63.7296L400.256 20.8986L369.724 52.4835L379.086 95.3145H379.384ZM240.32 241.993C246.49 241.049 252.314 240.455 257.561 240.438C263.085 240.455 268.618 241.049 274.788 241.993C270.733 238.822 261.669 231.644 261.669 231.644L265.426 200.059C265.426 200.059 275.086 199.76 280.99 199.461C286.894 199.162 291.545 195.991 295.004 188.813C298.403 181.635 297.15 172.243 292.499 166.321C287.848 160.399 282.838 160.399 282.838 160.399C282.838 160.399 285.939 158.783 287.49 154.117C289.696 147.597 289.04 141.615 283.435 135.693C278.127 129.472 268.765 133.839 268.765 133.839C269.361 132.223 270.614 123.49 266.261 117.867C264.412 115.354 260.357 112.842 257.852 112.842H257.256C254.751 112.842 250.696 115.354 248.848 117.867C244.793 123.49 246.045 132.283 246.343 133.839C246.343 133.839 237.279 129.771 231.674 135.693C226.068 141.914 225.412 147.836 227.618 154.117C229.467 158.843 232.27 160.399 232.27 160.399C232.27 160.399 227.32 160.399 222.609 166.321C217.898 172.243 216.646 181.635 220.105 188.813C223.504 195.991 228.215 199.162 234.118 199.461C240.32 199.76 249.683 200.059 249.683 200.059L253.44 231.644C253.44 231.644 244.375 238.882 240.32 241.993ZM258.508 199.162H258.389H250.398L233.224 178.225L258.151 191.026H258.747L283.673 178.225L266.499 199.162H258.508ZM463.228 183.19C463.228 183.19 444.861 220.398 436.393 242.292C436.393 242.292 427.687 229.79 420.173 225.064C420.173 225.064 429.535 244.445 428.879 249.47L432.934 251.684C432.934 251.684 425.778 269.51 420.173 288.892C420.173 288.892 418.622 284.226 406.457 278.902L421.127 276.688L428.581 249.769C428.581 249.769 417.37 242.292 414.866 240.378L414.674 240.243C412.369 238.625 407.385 235.126 406.457 227.217C405.503 219.082 408.008 213.459 413.315 210.946C418.324 208.434 423.93 209.989 426.077 211.245C426.077 211.245 423.572 206.221 424.526 200.298C425.774 194.4 429.151 192.478 431.358 191.221L431.384 191.206C433.59 190.249 437.645 188.992 442.595 191.206C445.696 192.462 446.948 194.974 446.948 194.974C446.948 194.974 448.2 193.419 448.498 192.462C448.797 190.249 451.957 185.882 454.76 184.326C458.219 183.07 460.664 182.472 463.168 183.07L463.228 183.19ZM481.297 145.982C495.012 120.977 520.595 85.6237 520.595 85.6237L483.801 106.561L481.297 145.982ZM53.3117 183.19C53.3117 183.19 71.6787 220.398 80.1465 242.292C80.1465 242.292 88.8529 229.79 96.3666 225.064C96.3666 225.064 87.0043 244.445 87.6603 249.47L83.6052 251.684C83.6052 251.684 90.7612 269.51 96.3666 288.892C96.3666 288.892 97.9171 284.226 110.082 278.902L95.4125 276.688L87.9584 249.769C87.9584 249.769 99.1694 242.292 101.674 240.378L101.866 240.243C104.171 238.624 109.155 235.126 110.082 227.217C111.036 219.082 108.532 213.459 103.224 210.946C98.2153 208.434 92.6098 209.989 90.463 211.245C90.463 211.245 92.9676 206.221 92.0135 200.298C90.7659 194.4 87.3895 192.478 85.1819 191.221L85.1557 191.206C82.9493 190.249 78.8942 188.992 73.9447 191.206C70.8438 192.462 69.5915 194.974 69.5915 194.974C69.5915 194.974 68.3392 193.419 68.0411 192.462C67.7429 190.249 64.5823 185.882 61.7796 184.326C58.6787 183.07 56.1741 182.472 53.3714 183.07L53.3117 183.19ZM39.298 148.195C25.5825 123.191 0 87.837 0 87.837L36.7935 109.133L39.298 148.195ZM175.201 248.573C169.894 249.829 164.288 252.043 158.683 254.495C161.784 250.427 168.642 241.036 168.642 241.036L157.132 211.664C157.132 211.664 147.77 213.878 142.165 215.134C136.261 216.39 130.954 214.536 125.945 208.554C120.637 202.272 119.683 193.24 122.486 186.061C125.587 178.883 130.298 177.926 130.298 177.926C130.298 177.926 127.197 177.328 124.394 173.26C120.637 167.637 119.743 161.715 123.44 154.476C127.137 147.238 137.155 148.853 137.155 148.853C136.201 147.298 133.1 139.462 135.605 132.881C136.857 130.07 139.958 126.6 142.463 125.703H143.059C145.564 125.105 150.215 126.66 152.421 128.515C158.027 132.881 158.981 141.316 158.981 143.23C158.981 143.23 166.793 136.65 173.651 141.017C180.509 145.384 182.715 151.007 182.357 157.587C182.059 162.612 179.554 164.765 179.554 164.765C179.554 164.765 184.206 163.509 190.467 167.876C196.729 172.542 200.128 181.036 198.875 189.112C197.623 196.948 193.866 201.315 187.963 203.17C182.357 205.024 173.293 207.836 173.293 207.836L177.944 239.122C177.944 239.122 188.559 243.787 193.21 245.702C186.949 246.3 181.343 247.257 176.036 248.812L175.082 248.513L175.201 248.573ZM164.587 208.853L172.398 206.639L183.609 181.934L162.738 201.016H162.44L135.009 195.094L157.132 210.707L164.587 208.853ZM324.164 245.462C330.425 246.061 336.031 247.018 341.338 248.573L341.219 248.633L342.173 248.334C347.48 249.59 353.086 251.743 358.691 254.256C355.591 250.188 348.733 240.796 348.733 240.796L360.242 211.425C360.242 211.425 369.306 213.638 375.21 214.894C380.815 216.151 386.123 214.595 391.43 208.314C396.737 202.093 397.989 193 394.889 185.822C391.728 178.943 387.077 177.686 387.077 177.686C387.077 177.686 390.178 177.088 392.98 173.021C396.737 167.397 397.691 161.415 393.934 154.237C390.178 146.76 380.219 148.614 380.219 148.614C381.173 147.358 384.274 139.222 381.769 132.642C380.517 129.831 377.416 126.062 374.912 125.464H374.315C371.811 124.806 367.457 126.421 364.953 128.275C359.646 132.642 358.393 141.436 358.393 142.991C358.393 142.991 350.581 136.411 343.724 140.778C336.568 145.144 334.421 150.468 335.017 157.348C335.315 162.313 337.82 164.526 337.82 164.526C337.82 164.526 333.109 162.971 326.907 167.637C320.705 172.303 317.247 181.036 318.499 188.873C320.049 197.008 323.806 201.076 329.412 202.93C335.017 204.785 344.081 207.596 344.081 207.596L339.43 238.882C339.43 238.882 328.815 243.608 324.164 245.462ZM360.361 210.707L352.549 208.853L345.095 206.639L333.884 181.934L354.756 201.016H355.054L382.485 195.094L360.361 210.707Z" fill="white" fill-opacity="0.5"/>
</svg>
