<svg width="211" height="51" viewBox="0 0 211 51" fill="none" xmlns="http://www.w3.org/2000/svg">
<g clip-path="url(#clip0_101_2566)">
<path fill-rule="evenodd" clip-rule="evenodd" d="M31.6624 9.39851L29.0789 4.70482L31.6486 0H31.6508L34.2207 4.70482L31.6988 9.39851H31.6624ZM16.848 11.5612L13.0949 7.7303L14.303 2.51112L14.3054 2.51041L18.0482 6.35598L16.8832 11.5513L16.848 11.5612ZM50.3019 7.7303L46.549 11.5612L46.5139 11.5513L45.3488 6.35598L49.0916 2.51041L49.094 2.51112L50.3019 7.7303ZM63.8593 10.3943C63.8593 10.3943 60.7419 14.6865 59.0445 17.7594L59.3381 12.9792L63.8593 10.3943ZM4.81496 18.0202C3.11748 14.9472 0 10.6551 0 10.6551L4.5212 13.2403L4.81496 18.0202Z" fill="#AD9156"/>
<path fill-rule="evenodd" clip-rule="evenodd" d="M29.4947 29.4262C30.2435 29.3024 30.9658 29.2328 31.6298 29.2358L31.6888 29.2373C32.3528 29.2344 33.0751 29.2923 33.8239 29.4158C33.3372 29.0371 32.2192 28.1497 32.2192 28.1497L32.661 24.316C32.661 24.316 33.8198 24.2774 34.5554 24.2357C35.2897 24.1928 35.8642 23.8243 36.2803 22.9328C36.6955 22.0428 36.5476 20.9252 35.9611 20.1824C35.3806 19.4453 34.7767 19.4564 34.7767 19.4564C34.7767 19.4564 35.1369 19.2646 35.3378 18.6974C35.6123 17.9211 35.5307 17.2039 34.8511 16.4662C34.1728 15.7284 33.0424 16.2557 33.0424 16.2557C33.0966 16.0627 33.2354 15.0058 32.718 14.3262C32.4948 14.0313 32.0071 13.7113 31.6888 13.7092L31.6298 13.7195C31.3114 13.7215 30.8239 14.0416 30.6006 14.3363C30.0832 15.0161 30.2223 16.0728 30.2761 16.2659C30.2761 16.2659 29.1459 15.7384 28.4675 16.4763C27.7879 17.214 27.7064 17.9315 27.9808 18.7077C28.1819 19.2748 28.542 19.4667 28.542 19.4667C28.542 19.4667 27.9381 19.4556 27.3575 20.1924C26.771 20.9352 26.6231 22.0532 27.0383 22.9432C27.4544 23.8344 28.0288 24.2033 28.7632 24.2461C29.4988 24.2878 30.6577 24.3261 30.6577 24.3261L31.0994 28.1603C31.0994 28.1603 29.9814 29.0473 29.4947 29.4262ZM32.685 24.1973L31.7058 24.2137H31.6943L30.715 24.1973L28.6093 21.6448L31.6782 23.2217H31.7222L34.7907 21.6448L32.685 24.1973ZM209.462 33.3534C209.479 34.3989 209.738 34.3989 210.735 34.3647V35.016H206.744V34.3647C207.673 34.3647 207.862 34.3134 207.844 33.3363V29.0347C207.836 28.9671 207.82 28.8992 207.806 28.8345C207.795 28.7849 207.783 28.7368 207.776 28.6922C207.77 28.6758 207.765 28.6576 207.758 28.6381C207.687 28.416 207.561 28.019 207.07 27.7669C206.967 27.7156 206.674 27.5955 206.314 27.5955C205.351 27.5955 204.714 28.4523 204.575 28.6752C204.426 28.9237 204.389 29.1242 204.341 29.385L204.335 29.412L204.283 30.629V33.7308L204.287 33.7472C204.355 33.9965 204.407 34.1953 204.609 34.2794C204.748 34.3479 205.039 34.3479 205.435 34.3479V35.0162H201.41V34.3649H201.996C202.563 34.2619 202.649 34.1592 202.666 33.5594V23.8079C202.665 23.7957 202.663 23.7833 202.663 23.7706L202.662 23.7676C202.646 23.5845 202.625 23.3532 202.546 23.2255C202.395 22.9588 202.065 22.9678 201.463 22.9842L201.41 22.9856V22.3343C202.632 22.3001 203.096 22.2655 204.283 22.0773V28.0925C204.312 28.0636 204.355 28.0094 204.41 27.9402C204.516 27.8045 204.669 27.6117 204.851 27.4412C205.126 27.2013 205.848 26.6527 206.95 26.6527C208.189 26.6527 208.843 27.3898 209.083 27.7669C209.495 28.3992 209.479 29.1166 209.462 29.902V29.9088V33.3534ZM165.094 35.0158V23.5505C165.094 23.3623 165.094 23.1909 164.939 23.0707C164.785 22.9167 164.509 22.9167 164.062 22.9167V22.2651C164.561 22.2483 165.06 22.2313 165.558 22.1966C165.833 22.1848 166.106 22.1568 166.373 22.1292L166.374 22.129L166.376 22.1289C166.495 22.1166 166.612 22.1045 166.729 22.0939V24.1845L166.746 28.0919C166.789 28.0432 166.833 27.9929 166.876 27.9419C166.973 27.8313 167.07 27.7177 167.176 27.6121C167.554 27.2007 168.156 26.6868 169.482 26.6868C169.653 26.6868 170.289 26.6868 170.805 26.9437C171.631 27.3379 172.613 28.5204 172.613 30.6797C172.613 30.9713 172.561 32.3764 171.993 33.4044C171.873 33.6104 171.597 34.056 171.064 34.4844C170.255 35.1357 169.395 35.2038 169.016 35.2038C168.708 35.2038 167.967 35.1699 167.227 34.7073C167.05 34.5896 166.939 34.4961 166.801 34.3824C166.739 34.3306 166.671 34.2743 166.591 34.21C166.189 34.5306 166.073 34.6412 165.749 34.9488L165.68 35.0155L165.094 35.0158ZM166.694 32.2394C166.746 32.9762 166.953 33.6791 167.589 34.1247C167.76 34.2617 168.175 34.5186 168.776 34.5186C168.999 34.5186 169.619 34.4676 170.066 33.9705C170.582 33.4048 170.944 32.2396 170.944 30.4915V30.4782C170.944 30.2693 170.947 28.8951 170.394 28.0922C170.291 27.9553 170.118 27.7493 169.756 27.5783C169.619 27.5095 169.378 27.4068 168.999 27.4068C168.535 27.4068 168.07 27.5953 167.726 27.8869C166.711 28.7435 166.694 30.3885 166.694 31.6225V32.2394ZM68.579 27.2523C68.9419 27.0226 68.9728 26.9971 69.1565 26.8444L69.1812 26.8238C69.8004 26.2927 69.9726 25.6073 70.0069 25.3161C70.0069 25.1789 70.0069 24.9902 69.9726 24.6816C69.7489 24.9219 69.5252 25.11 69.1983 25.11C69.0433 25.0929 68.9057 25.059 68.7854 24.973C68.4756 24.7674 68.2865 24.3906 68.2865 23.996C68.2865 23.8763 68.2865 23.739 68.3724 23.5166C68.4756 23.2767 68.7681 22.7795 69.5079 22.7795C69.6284 22.7795 69.9207 22.7965 70.196 22.9852C70.695 23.2938 70.9185 23.979 70.9185 24.5789C70.9185 25.5214 70.4196 26.4642 69.7143 27.0469C69.5422 27.1838 69.2324 27.3893 68.7509 27.6465L68.579 27.2523ZM77.916 26.8238H78.3805V29.2745H77.7784C77.7095 29.0178 77.6234 28.7263 77.5201 28.4864C77.0557 27.4584 76.2471 27.3383 75.7999 27.3383H75.7808C75.5602 27.3378 75.0145 27.3365 74.6471 27.8523C74.5095 28.058 74.4406 28.2637 74.4406 28.5036C74.4406 28.6233 74.458 28.8293 74.5956 29.0692C74.8964 29.5784 75.5784 29.7866 76.1362 29.957L76.1386 29.9577L76.1399 29.9581C76.2188 29.9822 76.2952 30.0054 76.3676 30.0288C76.4365 30.046 76.987 30.2174 77.3483 30.406C77.7267 30.6116 78.8106 31.2453 78.8106 32.6508C78.8106 32.9078 78.7762 33.4564 78.3805 34.0392C78.002 34.6216 77.3138 35.204 75.7825 35.204C74.71 35.204 74.067 34.8679 73.6367 34.6428C73.6115 34.6297 73.5869 34.6168 73.5631 34.6044L73.3566 35.0671H72.8063L72.8751 32.0854H73.4945C73.5005 32.1135 73.5068 32.1483 73.5143 32.1888C73.594 32.6188 73.793 33.6949 74.7676 34.2273C75.0944 34.4159 75.4559 34.5015 75.8343 34.5015C76.987 34.5015 77.2622 33.6278 77.2622 33.1993C77.2622 33.045 77.2451 32.7536 77.0386 32.4279C76.7505 31.9447 76.1949 31.7675 75.6431 31.5914C75.5688 31.5677 75.4947 31.544 75.4213 31.5196C74.9397 31.3652 74.4751 31.2112 74.045 30.954C73.6838 30.7315 72.961 30.2173 72.961 29.0516C72.961 28.8459 72.9954 28.3837 73.2535 27.9206C73.9245 26.7211 75.49 26.6699 75.8512 26.6699C76.6082 26.6699 77.0728 26.8584 77.7436 27.1497L77.916 26.8238ZM80.6038 30.9027H86.092V29.6515H80.6038V30.9027ZM89.3 24.2535C89.2313 23.7392 89.1453 23.6707 88.6464 23.6022H87.7345V22.9339H92.7066V23.6022H91.8465C91.2961 23.6193 91.227 23.6878 91.1239 24.2021V28.2463H96.4573V24.2192C96.3885 23.739 96.3196 23.6706 95.838 23.6021H94.8917V22.9337H99.8638V23.6021H99.0552C98.7627 23.6191 98.6251 23.6706 98.5219 23.739C98.3499 23.8763 98.3154 24.0477 98.2983 24.2705V33.7817L98.3003 33.7894C98.3179 33.8616 98.3544 34.0088 98.4704 34.1246C98.694 34.3299 99.1414 34.3299 99.8467 34.3299V34.9814H94.8404V34.296H95.5285C95.7006 34.296 95.9242 34.296 96.0789 34.2443C96.423 34.1246 96.4401 33.8676 96.4574 33.5075V28.966H91.107V33.6615C91.2275 34.1759 91.3306 34.2271 91.8984 34.296H92.707V34.9644H87.6834V34.296H88.6296C89.077 34.2443 89.163 34.1759 89.3006 33.7646L89.3 24.2535ZM103.296 31.2746C103.279 31.0194 103.262 30.7637 103.262 30.4915L108.698 30.4916C108.681 29.9088 108.647 29.2408 108.475 28.7265C108.216 27.9041 107.546 27.1842 106.686 26.8758C106.221 26.7044 105.67 26.7044 105.516 26.7044C105.103 26.7044 104.07 26.7216 103.124 27.407C102.574 27.784 102.315 28.1779 102.178 28.401C101.558 29.4119 101.524 30.6118 101.524 30.9717C101.524 31.3144 101.558 32.9426 102.436 33.9706C102.832 34.4333 103.743 35.1871 105.343 35.1871C105.928 35.1871 107.494 35.1016 108.406 33.6109C108.612 33.2851 108.733 33.011 108.939 32.3085H108.216C108.212 32.323 108.207 32.3396 108.201 32.3582C108.099 32.6928 107.803 33.6673 106.874 34.0732C106.461 34.2617 106.118 34.2617 105.945 34.2617C105.67 34.2617 105.137 34.2446 104.569 33.8507C103.467 33.1187 103.337 31.7253 103.299 31.3147L103.297 31.2934L103.296 31.28L103.296 31.2746ZM106.703 27.8868C107.064 28.4692 107.098 29.1718 107.116 29.8576H103.261C103.537 28.4694 103.778 27.9208 104.431 27.5268C104.603 27.4237 104.93 27.2352 105.446 27.2352C105.911 27.2352 106.204 27.3896 106.358 27.5094C106.548 27.6466 106.668 27.8181 106.703 27.8868ZM115.162 34.3475V34.9983H110.517V34.3475H111.239C111.721 34.2615 111.773 34.176 111.842 33.7133V28.2635C111.807 27.8009 111.756 27.7492 111.326 27.6636H110.534V27.0128C110.706 27.007 110.876 27.003 111.044 26.9992C111.382 26.9915 111.715 26.9839 112.048 26.9611C112.478 26.9268 112.908 26.8755 113.338 26.8238V28.4175C113.682 27.7666 114.009 27.1838 114.698 26.8755C114.801 26.8238 115.093 26.7041 115.437 26.7041C115.558 26.7041 115.867 26.7213 116.143 26.8755C116.435 27.0299 116.762 27.3207 116.762 28.0408C116.762 28.8976 116.194 29.1718 115.85 29.1718C115.455 29.1718 115.024 28.8636 115.024 28.4175C115.033 28.3037 115.087 28.19 115.137 28.0832C115.185 27.9809 115.231 27.8847 115.231 27.8009C115.213 27.6466 115.007 27.5609 114.8 27.5609C114.663 27.5609 114.525 27.6122 114.387 27.6982C114.164 27.8351 113.82 28.2121 113.631 28.8121C113.388 29.5367 113.389 30.322 113.39 31.8075L113.39 31.9252C113.39 31.9831 113.39 32.0422 113.39 32.1022C113.39 32.5653 113.39 33.0108 113.407 33.4564C113.407 33.4771 113.407 33.4975 113.407 33.5178C113.406 33.799 113.405 34.0355 113.613 34.2274C113.786 34.3647 113.992 34.3647 114.233 34.3476L115.162 34.3475ZM120.865 23.7737L119.351 24.5448L119.265 26.9781H117.974V27.6465H119.247V33.0963L119.249 33.1273C119.266 33.4468 119.285 33.8251 119.402 34.1075C119.574 34.4845 120.073 35.0841 121.14 35.0841C121.88 35.0841 122.327 34.8956 122.602 34.7584L123.067 34.5015L123.084 33.9016L123.039 33.9262C122.711 34.1063 122.397 34.2791 122.034 34.2791C120.882 34.2791 120.847 33.0109 120.847 32.1369V27.6466H122.654V26.9782H120.865V23.7737ZM124.911 28.8976C125.823 26.9439 127.836 26.7041 128.559 26.7041C129.023 26.7041 130.348 26.79 131.277 27.8009C131.673 28.2465 132.395 29.2916 132.395 30.8855C132.395 31.6052 132.206 33.6791 130.262 34.7074C129.969 34.8614 129.264 35.1701 128.335 35.1701C127.286 35.1701 126.219 34.7584 125.514 34.0216C125.084 33.5589 124.395 32.5139 124.447 30.8685C124.464 30.5598 124.516 29.72 124.911 28.8976ZM126.89 33.9016C127.062 34.1418 127.543 34.6044 128.387 34.6044C129.092 34.6044 129.625 34.2615 129.987 33.7133C130.621 32.7573 130.609 31.4182 130.606 31.0578C130.606 31.037 130.606 31.0194 130.606 31.0054C130.606 31.0018 130.606 30.9967 130.606 30.9905C130.606 30.9837 130.606 30.9753 130.607 30.9655C130.613 30.6519 130.649 28.893 129.952 27.9723C129.471 27.3382 128.73 27.2523 128.455 27.2523C128.232 27.2523 127.698 27.304 127.234 27.7154C126.339 28.4692 126.184 29.9774 126.202 31.0742C126.202 31.0912 126.202 33.0108 126.89 33.9016ZM135.965 31.7255C135.053 32.771 134.64 33.3363 134.64 34.0217C134.64 34.6046 134.915 34.8273 135.397 35.1532L135.371 35.1739C134.899 35.5427 134.464 35.883 134.227 36.4386C134.072 36.764 134.072 36.9868 134.072 37.1408C134.072 38.4434 135.294 39.06 135.603 39.1977C136.102 39.4372 136.791 39.6433 138.012 39.6433H138.038C138.609 39.6436 140.079 39.6443 141.367 38.6146C142.52 37.6892 142.691 36.5755 142.691 36.0102C142.691 34.6047 141.625 34.1249 141.161 33.9876C140.713 33.8507 140.128 33.8507 140.025 33.8507C139.894 33.8507 139.762 33.8551 139.633 33.8594C139.509 33.8637 139.386 33.8678 139.268 33.8678C138.889 33.8849 138.528 33.9017 138.15 33.9362C138.043 33.9419 137.934 33.9492 137.825 33.9567C137.6 33.972 137.372 33.9875 137.152 33.9875C136.464 33.9875 136.051 33.7989 135.896 33.5761C135.827 33.4734 135.81 33.3709 135.81 33.2507C135.81 32.7538 136.188 32.3766 136.549 32.0337C136.585 32.047 136.622 32.0611 136.661 32.0756C136.968 32.1932 137.359 32.3424 138.064 32.3424C138.408 32.3424 139.457 32.3424 140.335 31.657C141.281 30.9369 141.384 29.9261 141.384 29.5147C141.384 28.6011 141.015 28.1883 140.741 27.8812L140.73 27.8693C140.782 27.8523 141.109 27.7838 141.367 27.7838C141.469 27.7838 141.574 27.7838 141.779 27.8523C141.79 27.8551 141.802 27.8579 141.813 27.8609C141.821 27.8633 141.831 27.8658 141.841 27.8684C141.851 27.8712 141.862 27.874 141.872 27.8768L141.903 27.8854C142.005 27.9136 142.113 27.9429 142.209 27.9553C142.485 27.9553 142.503 27.6124 142.503 27.5268C142.503 27.0299 142.141 26.824 141.711 26.824C141.126 26.824 140.73 27.1327 140.335 27.4585C139.715 27.0301 139.405 26.8586 138.683 26.7902C138.494 26.7555 138.304 26.7385 138.098 26.7385C136.343 26.7385 135.466 27.7668 135.139 28.3664C134.863 28.8636 134.829 29.3605 134.829 29.5661C134.829 29.8402 134.881 30.697 135.483 31.3141C135.569 31.4 135.724 31.537 135.965 31.7255ZM135.792 37.8952C135.569 37.5865 135.466 37.2436 135.466 36.8666C135.466 36.2325 135.741 35.7869 136.102 35.29C136.391 35.2984 136.676 35.3112 136.961 35.3239C137.252 35.337 137.544 35.35 137.84 35.3584C137.957 35.3613 138.095 35.3622 138.246 35.3632C139.03 35.3689 140.177 35.377 140.696 35.6501C140.919 35.7698 141.35 36.1127 141.367 36.8153C141.367 37.861 140.335 38.5631 139.371 38.8205C139.182 38.872 138.803 38.9575 138.27 38.9575C136.911 38.9575 136.119 38.3579 135.792 37.8952ZM138.201 31.7597C137.462 31.7597 136.859 31.2115 136.618 30.5432C136.532 30.3372 136.446 29.9261 136.481 29.3433C136.532 28.2978 136.997 27.7324 137.427 27.4922C137.737 27.3207 137.995 27.304 138.132 27.304C138.924 27.304 139.75 27.9723 139.75 29.6174C139.75 30.6457 139.319 31.2453 138.958 31.5198C138.666 31.7425 138.339 31.7597 138.201 31.7597ZM146.038 31.28C146.021 31.0229 146.002 30.7658 146.002 30.4916H151.439C151.422 29.9088 151.388 29.2408 151.215 28.7265C150.958 27.9041 150.286 27.1842 149.426 26.8758C148.962 26.7044 148.411 26.7044 148.257 26.7044C147.844 26.7044 146.811 26.7216 145.865 27.407C145.315 27.784 145.056 28.1779 144.919 28.401C144.299 29.4119 144.265 30.6118 144.265 30.9717C144.265 31.3144 144.299 32.9426 145.176 33.9706C145.572 34.4333 146.485 35.1871 148.084 35.1871C148.67 35.1871 150.235 35.1016 151.146 33.6109C151.353 33.2851 151.474 33.011 151.681 32.3085H150.958C150.954 32.3231 150.948 32.34 150.943 32.359C150.841 32.6945 150.544 33.6677 149.616 34.0732C149.203 34.2617 148.859 34.2617 148.687 34.2617C148.411 34.2617 147.878 34.2446 147.311 33.8507C146.21 33.1195 146.079 31.7283 146.04 31.3161C146.039 31.303 146.038 31.291 146.038 31.28ZM149.856 29.8576C149.839 29.1718 149.805 28.4692 149.443 27.8868C149.409 27.8181 149.289 27.6466 149.1 27.5094C148.944 27.3896 148.653 27.2352 148.187 27.2352C147.671 27.2352 147.344 27.4237 147.173 27.5268C146.52 27.9208 146.278 28.4694 146.002 29.8576H149.856ZM153.808 27.0019H153.807C153.659 27.0052 153.511 27.0084 153.361 27.0128V27.6636H154.033C154.41 27.6636 154.652 27.7666 154.634 28.4692V33.4906C154.634 33.4906 154.634 33.4969 154.635 33.503C154.64 33.5967 154.664 34.1342 154.324 34.2791C154.238 34.3134 154.17 34.3301 153.947 34.3301H153.344L153.327 34.9817H157.388V34.3476C156.871 34.3647 156.545 34.3476 156.389 34.1932C156.252 34.0737 156.234 33.8018 156.217 33.546V33.5419V29.5147C156.222 29.4692 156.226 29.4264 156.231 29.3851C156.255 29.1624 156.273 28.9919 156.389 28.7608C156.716 28.075 157.559 27.6124 158.315 27.6124C158.85 27.6124 159.211 27.7838 159.468 28.2637C159.675 28.6579 159.71 29.1719 159.71 29.6346V33.4907C159.693 34.3724 159.474 34.3673 158.724 34.3501C158.702 34.3496 158.678 34.3492 158.655 34.3486C158.639 34.3483 158.624 34.3479 158.608 34.3476V34.9985H162.566V34.3476C162.119 34.3648 161.74 34.3648 161.602 34.2963C161.293 34.1498 161.322 33.6181 161.327 33.5491V33.5437V33.542C161.344 32.6509 161.361 31.7427 161.344 30.8516C161.344 30.2515 161.327 29.6517 161.293 29.0518C161.291 29.0452 161.291 29.0378 161.29 29.0297C161.288 29.0106 161.287 28.9874 161.284 28.9603V28.9591C161.27 28.7547 161.239 28.3397 161.052 27.9378C160.673 27.0983 159.779 26.7041 158.867 26.7041C158.574 26.7041 157.835 26.7555 157.146 27.2182C156.753 27.4568 156.461 27.7795 156.154 28.1198L156.149 28.1267L156.132 26.8413C155.804 26.8755 155.46 26.9098 155.116 26.944C154.689 26.9825 154.253 26.9921 153.808 27.0019ZM178.828 26.7041C178.105 26.7041 176.092 26.9439 175.18 28.8976C174.784 29.72 174.733 30.5598 174.715 30.8685C174.664 32.5139 175.351 33.5589 175.782 34.0216C176.487 34.7584 177.555 35.1701 178.604 35.1701C179.532 35.1701 180.238 34.8614 180.53 34.7074C182.474 33.6791 182.663 31.6052 182.663 30.8855C182.663 29.2916 181.94 28.2465 181.546 27.8009C180.617 26.79 179.291 26.7041 178.828 26.7041ZM178.655 34.6044C177.812 34.6044 177.33 34.1418 177.159 33.9016C176.47 33.0108 176.47 31.0912 176.47 31.0742C176.453 29.9774 176.608 28.4692 177.502 27.7154C177.968 27.304 178.501 27.2523 178.724 27.2523C178.999 27.2523 179.738 27.3382 180.221 27.9723C180.918 28.893 180.881 30.6511 180.875 30.9647C180.875 30.9768 180.874 30.9868 180.874 30.9946C180.874 30.9989 180.874 31.0026 180.874 31.0054C180.874 31.0189 180.874 31.0357 180.874 31.0554V31.0577C180.878 31.4181 180.89 32.7572 180.255 33.7133C179.894 34.2615 179.361 34.6044 178.655 34.6044ZM190.001 26.8238H190.465V29.2745H189.864C189.794 29.0178 189.708 28.7263 189.605 28.4864C189.141 27.4584 188.332 27.3383 187.885 27.3383H187.865C187.645 27.3378 187.099 27.3365 186.732 27.8523C186.594 28.058 186.526 28.2637 186.526 28.5036C186.526 28.6233 186.543 28.8293 186.68 29.0692C186.981 29.5781 187.663 29.7865 188.22 29.9567C188.254 29.9672 188.289 29.9777 188.322 29.9881C188.367 30.0018 188.41 30.0153 188.452 30.0288C188.521 30.046 189.072 30.2174 189.434 30.406C189.811 30.6116 190.895 31.2453 190.895 32.6508C190.895 32.9078 190.861 33.4564 190.465 34.0392C190.087 34.6216 189.398 35.204 187.868 35.204C186.794 35.204 186.152 34.8679 185.721 34.6429C185.697 34.6297 185.671 34.6168 185.647 34.6044L185.441 35.0671H184.891L184.96 32.0854H185.58C185.585 32.1135 185.592 32.1483 185.599 32.1888C185.679 32.6188 185.878 33.6949 186.852 34.2273C187.179 34.4159 187.54 34.5015 187.919 34.5015C189.072 34.5015 189.347 33.6278 189.347 33.1993C189.347 33.045 189.33 32.7536 189.124 32.4279C188.835 31.9447 188.28 31.7675 187.728 31.5914L187.727 31.5911C187.653 31.5677 187.579 31.5439 187.506 31.5196C187.024 31.3652 186.56 31.2112 186.13 30.954C185.769 30.7315 185.046 30.2173 185.046 29.0516C185.046 28.8459 185.08 28.3837 185.338 27.9206C186.01 26.7211 187.575 26.6699 187.936 26.6699C188.693 26.6699 189.158 26.8584 189.828 27.1497L190.001 26.8238ZM199.69 33.8506C199.897 33.5248 200.051 33.1477 200.293 32.3254L199.604 32.3252C199.501 32.6849 199.382 33.0791 199.191 33.4045C198.624 34.3299 197.798 34.45 197.368 34.45C196.715 34.45 196.215 34.1588 196.026 34.0391C195.338 33.5417 195.115 32.8735 194.993 32.0508C194.976 31.9307 194.925 31.4338 194.925 30.9882C194.925 29.463 195.252 28.6407 195.665 28.075C196.249 27.3207 196.989 27.2352 197.368 27.2352C198.245 27.218 198.504 27.7154 198.504 28.0921C198.504 28.3148 198.451 28.4522 198.177 28.7947V28.7996L198.178 28.8052C198.178 28.8095 198.178 28.814 198.18 28.8188C198.18 28.8242 198.181 28.83 198.181 28.8361L198.183 28.8507C198.198 29.024 198.236 29.4247 198.555 29.6515C198.727 29.7889 198.968 29.8059 199.037 29.8059C199.246 29.8059 199.396 29.7456 199.485 29.7097L199.501 29.7029C199.914 29.4977 200.051 29.1376 200.051 28.6749C200.051 28.4864 200.034 28.058 199.724 27.6808C199.398 27.2523 198.572 26.7041 197.248 26.7041C195.75 26.7041 194.821 27.3724 194.426 27.7492C193.773 28.3662 193.36 29.2744 193.187 30.2001C193.101 30.6457 193.101 31.0229 193.101 31.1939C193.101 31.6223 193.17 33.216 194.288 34.2273C195.251 35.1013 196.611 35.1869 197.007 35.1869C198.074 35.1869 199.14 34.7417 199.69 33.8506ZM25.2568 50.4226C27.8945 50.9746 31.6855 50.9915 31.7041 50.9916C31.7224 50.9915 35.5134 50.9746 38.1512 50.4226C40.7954 49.8699 43.4722 48.9759 45.9041 47.4643C48.3361 45.9521 49.2666 44.082 49.2828 43.6104C49.2828 43.6104 47.7801 42.3116 47.2916 41.936C46.4264 41.2695 44.8596 40.4565 44.8596 40.4565C44.8596 40.4565 43.9455 41.7247 42.0684 42.4559C40.1915 43.1879 38.5755 43.757 35.7192 44.0983C33.0559 44.4166 31.8543 44.3819 31.7041 44.3757C31.7149 44.3753 31.7203 44.375 31.7203 44.375H31.6878C31.6878 44.375 31.6932 44.3753 31.7041 44.3757C31.5537 44.3819 30.352 44.4166 27.6888 44.0983C24.8324 43.7568 23.2165 43.1878 21.3395 42.4559C19.4626 41.7247 18.5483 40.4565 18.5483 40.4565C18.5483 40.4565 16.9815 41.2695 16.1164 41.936C15.6279 42.3116 14.125 43.6104 14.125 43.6104C14.1414 44.082 15.0719 45.9521 17.5037 47.4643C19.9358 48.9759 22.6126 49.8699 25.2568 50.4226ZM31.7278 36.8636C31.3454 36.8649 28.3218 36.8845 26.398 37.1884C26.3468 37.1964 26.2812 37.2064 26.2024 37.2183C25.3055 37.3539 22.7112 37.746 20.5058 38.5376C18.1065 39.3997 16.3438 40.684 15.7888 41.0909C15.2338 41.497 14.1401 42.3911 14.1401 42.3911C14.434 40.0171 18.4817 38.278 19.1347 38.0176C19.1723 38.0027 19.2228 37.9816 19.2859 37.9554C20.3189 37.525 24.7383 35.6836 31.7278 35.6766C38.7168 35.6836 43.1351 37.5244 44.1687 37.9549L44.1701 37.9555C44.2331 37.9817 44.2834 38.0027 44.3209 38.0176C44.9738 38.278 49.0215 40.0171 49.3153 42.3911C49.3153 42.3911 48.2218 41.497 47.6669 41.0909C47.112 40.684 45.349 39.3997 42.9497 38.5376C40.7445 37.746 38.1506 37.3539 37.2535 37.2184C37.1746 37.2064 37.1087 37.1964 37.0575 37.1884C35.1337 36.8845 32.1104 36.8649 31.7278 36.8636ZM31.7278 35.6766H31.6876H31.768H31.7278ZM56.8399 22.2793C56.8399 22.2793 54.5876 26.7993 53.5592 29.482C53.5592 29.482 52.4983 27.9539 51.5842 27.3684C51.5842 27.3684 52.7259 29.736 52.6554 30.3278L53.1449 30.5877C53.1449 30.5877 52.2748 32.7765 51.5893 35.1288C51.5893 35.1288 51.3946 34.5758 49.9031 33.9257L51.7085 33.6653L52.6339 30.4024C52.6339 30.4024 51.2517 29.4819 50.9691 29.2755C50.9653 29.2727 50.9615 29.2699 50.9575 29.267C50.9531 29.2639 50.9488 29.2607 50.9442 29.2575C50.9342 29.2503 50.9237 29.2428 50.913 29.2351C50.609 29.0178 50.0364 28.6087 49.9244 27.6934C49.8051 26.7179 50.1214 26.0026 50.7517 25.6987C51.3821 25.3953 52.0361 25.5679 52.3186 25.7203C52.3186 25.7203 52.0023 25.0921 52.1442 24.377C52.286 23.6614 52.7205 23.4115 52.9928 23.2816C53.2652 23.1514 53.7407 23.0052 54.3853 23.2712C54.7769 23.4326 54.923 23.7164 54.923 23.7164C54.923 23.7164 55.0812 23.5445 55.1035 23.4225C55.1525 23.1544 55.5278 22.6087 55.8656 22.4357C56.2033 22.2631 56.5248 22.203 56.8399 22.2793ZM9.84905 29.482C8.82055 26.7993 6.56836 22.2793 6.56836 22.2793C6.88347 22.203 7.20481 22.2631 7.54255 22.4357C7.88015 22.6087 8.25566 23.1544 8.3046 23.4225C8.32694 23.5445 8.48507 23.7164 8.48507 23.7164C8.48507 23.7164 8.63088 23.4326 9.02251 23.2712C9.66731 23.0052 10.1427 23.1514 10.4152 23.2816C10.6875 23.4115 11.1221 23.6614 11.264 24.377C11.4057 25.0921 11.0896 25.7203 11.0896 25.7203C11.372 25.5679 12.026 25.3953 12.6564 25.6987C13.2869 26.0026 13.603 26.7179 13.4837 27.6934C13.372 28.6081 12.8001 29.0171 12.4963 29.2344C12.4759 29.2489 12.4568 29.2625 12.4391 29.2755C12.1567 29.4819 10.7743 30.4024 10.7743 30.4024L11.6997 33.6653L13.5051 33.9257C12.0138 34.5758 11.8188 35.1288 11.8188 35.1288C11.1333 32.7765 10.2632 30.5877 10.2632 30.5877L10.7528 30.3278C10.6825 29.736 11.824 27.3684 11.824 27.3684C10.9099 27.9539 9.84905 29.482 9.84905 29.482ZM21.4995 30.2375C20.8575 30.4067 20.1751 30.65 19.4843 30.9634C19.8553 30.4713 20.7032 29.3251 20.7032 29.3251L19.2754 25.7375C19.2754 25.7375 18.1465 26.0004 17.4254 26.151C16.7052 26.3002 16.0542 26.0926 15.4195 25.3402C14.7861 24.5881 14.6371 23.4705 15.0094 22.601C15.3775 21.7396 15.9635 21.5938 15.9635 21.5938C15.9635 21.5938 15.5656 21.5015 15.2237 21.0062C14.7558 20.3278 14.6472 19.6141 15.1105 18.7255C15.5729 17.8374 16.8021 18.0535 16.8021 18.0535C16.6995 17.8814 16.2894 16.8969 16.6114 16.1064C16.7502 15.764 17.1373 15.3285 17.4442 15.244L17.5037 15.2387C17.8116 15.1581 18.3659 15.3409 18.6587 15.5676C19.3356 16.09 19.4776 17.1464 19.4757 17.3467C19.4757 17.3467 20.4295 16.5447 21.2773 17.0811C22.1259 17.6175 22.3922 18.2894 22.3298 19.1097C22.2839 19.7093 21.9863 19.9879 21.9863 19.9879C21.9863 19.9879 22.5665 19.8209 23.3195 20.3818C24.0798 20.9471 24.5144 21.9881 24.346 22.9552C24.1768 23.9233 23.7186 24.4287 23.0205 24.6601C22.3211 24.891 21.2122 25.2285 21.2122 25.2285L21.787 29.0452C21.787 29.0452 23.0981 29.6119 23.6671 29.8519C22.9116 29.9262 22.1962 30.0464 21.5556 30.2211L21.4995 30.2375ZM20.1822 25.3884L21.1234 25.1191L22.4899 22.1087L19.9389 24.4266L19.8963 24.4381L16.5216 23.7106L19.2211 25.6293L20.171 25.3912L20.1822 25.3884ZM39.7648 29.8517C40.5202 29.9261 41.2358 30.0461 41.8761 30.221L41.9325 30.2373C42.5745 30.4065 43.2566 30.6498 43.9474 30.9633C43.5764 30.4712 42.7285 29.3249 42.7285 29.3249L44.1563 25.7373C44.1563 25.7373 45.2853 26.0002 46.0064 26.1508C46.7267 26.3 47.3777 26.0925 48.0123 25.34C48.6455 24.588 48.7946 23.4704 48.4222 22.6008C48.0543 21.7395 47.4681 21.5937 47.4681 21.5937C47.4681 21.5937 47.8658 21.5014 48.2081 21.006C48.6758 20.3277 48.7844 19.614 48.3211 18.7254C47.8587 17.8373 46.6295 18.0534 46.6295 18.0534C46.7322 17.8812 47.1422 16.8967 46.8203 16.1062C46.6814 15.7639 46.2943 15.3283 45.9876 15.2439L45.928 15.2385C45.62 15.1579 45.0654 15.3408 44.7729 15.5675C44.096 16.0899 43.954 17.1462 43.9559 17.3466C43.9559 17.3466 43.0022 16.5445 42.1546 17.081C41.306 17.6172 41.0397 18.2891 41.1019 19.1096C41.148 19.7092 41.4454 19.9877 41.4454 19.9877C41.4454 19.9877 40.8654 19.8208 40.1126 20.3816C39.3522 20.947 38.9173 21.988 39.0858 22.955C39.2549 23.9232 39.7132 24.4287 40.4114 24.66C41.1105 24.891 42.2195 25.2283 42.2195 25.2283L41.6448 29.045C41.6448 29.045 40.3336 29.6118 39.7648 29.8517ZM43.2613 25.3913L43.2503 25.3884L42.3087 25.1191L40.9423 22.1087L43.4932 24.4266L43.536 24.4381L46.9107 23.7106L44.211 25.6293L43.2613 25.3913Z" fill="#001759"/>
<mask id="mask0_101_2566" style="mask-type:alpha" maskUnits="userSpaceOnUse" x="67" y="0" width="147" height="52">
<rect x="67.7363" width="145.508" height="51.2298" fill="#D9D9D9"/>
</mask>
<g mask="url(#mask0_101_2566)">
<path fill-rule="evenodd" clip-rule="evenodd" d="M29.4947 29.4262C30.2435 29.3024 30.9658 29.2328 31.6298 29.2358L31.6888 29.2373C32.3528 29.2344 33.0751 29.2923 33.8239 29.4158C33.3372 29.0371 32.2192 28.1497 32.2192 28.1497L32.661 24.316C32.661 24.316 33.8198 24.2774 34.5554 24.2357C35.2897 24.1928 35.8642 23.8243 36.2803 22.9328C36.6955 22.0428 36.5476 20.9252 35.9611 20.1824C35.3806 19.4453 34.7767 19.4564 34.7767 19.4564C34.7767 19.4564 35.1369 19.2646 35.3378 18.6974C35.6123 17.9211 35.5307 17.2039 34.8511 16.4662C34.1728 15.7284 33.0424 16.2557 33.0424 16.2557C33.0966 16.0627 33.2354 15.0058 32.718 14.3262C32.4948 14.0313 32.0071 13.7113 31.6888 13.7092L31.6298 13.7195C31.3114 13.7215 30.8239 14.0416 30.6006 14.3363C30.0832 15.0161 30.2223 16.0728 30.2761 16.2659C30.2761 16.2659 29.1459 15.7384 28.4675 16.4763C27.7879 17.214 27.7064 17.9315 27.9808 18.7077C28.1819 19.2748 28.542 19.4667 28.542 19.4667C28.542 19.4667 27.9381 19.4556 27.3575 20.1924C26.771 20.9352 26.6231 22.0532 27.0383 22.9432C27.4544 23.8344 28.0288 24.2033 28.7632 24.2461C29.4988 24.2878 30.6577 24.3261 30.6577 24.3261L31.0994 28.1603C31.0994 28.1603 29.9814 29.0473 29.4947 29.4262ZM32.685 24.1973L31.7058 24.2137H31.6943L30.715 24.1973L28.6093 21.6448L31.6782 23.2217H31.7222L34.7907 21.6448L32.685 24.1973ZM209.462 33.3534C209.479 34.3989 209.738 34.3989 210.735 34.3647V35.016H206.744V34.3647C207.673 34.3647 207.862 34.3134 207.844 33.3363V29.0347C207.836 28.9671 207.82 28.8992 207.806 28.8345C207.795 28.7849 207.783 28.7368 207.776 28.6922C207.77 28.6758 207.765 28.6576 207.758 28.6381C207.687 28.416 207.561 28.019 207.07 27.7669C206.967 27.7156 206.674 27.5955 206.314 27.5955C205.351 27.5955 204.714 28.4523 204.575 28.6752C204.426 28.9237 204.389 29.1242 204.341 29.385L204.335 29.412L204.283 30.629V33.7308L204.287 33.7472C204.355 33.9965 204.407 34.1953 204.609 34.2794C204.748 34.3479 205.039 34.3479 205.435 34.3479V35.0162H201.41V34.3649H201.996C202.563 34.2619 202.649 34.1592 202.666 33.5594V23.8079C202.665 23.7957 202.663 23.7833 202.663 23.7706L202.662 23.7676C202.646 23.5845 202.625 23.3532 202.546 23.2255C202.395 22.9588 202.065 22.9678 201.463 22.9842L201.41 22.9856V22.3343C202.632 22.3001 203.096 22.2655 204.283 22.0773V28.0925C204.312 28.0636 204.355 28.0094 204.41 27.9402C204.516 27.8045 204.669 27.6117 204.851 27.4412C205.126 27.2013 205.848 26.6527 206.95 26.6527C208.189 26.6527 208.843 27.3898 209.083 27.7669C209.495 28.3992 209.479 29.1166 209.462 29.902V29.9088V33.3534ZM165.094 35.0158V23.5505C165.094 23.3623 165.094 23.1909 164.939 23.0707C164.785 22.9167 164.509 22.9167 164.062 22.9167V22.2651C164.561 22.2483 165.06 22.2313 165.558 22.1966C165.833 22.1848 166.106 22.1568 166.373 22.1292L166.374 22.129L166.376 22.1289C166.495 22.1166 166.612 22.1045 166.729 22.0939V24.1845L166.746 28.0919C166.789 28.0432 166.833 27.9929 166.876 27.9419C166.973 27.8313 167.07 27.7177 167.176 27.6121C167.554 27.2007 168.156 26.6868 169.482 26.6868C169.653 26.6868 170.289 26.6868 170.805 26.9437C171.631 27.3379 172.613 28.5204 172.613 30.6797C172.613 30.9713 172.561 32.3764 171.993 33.4044C171.873 33.6104 171.597 34.056 171.064 34.4844C170.255 35.1357 169.395 35.2038 169.016 35.2038C168.708 35.2038 167.967 35.1699 167.227 34.7073C167.05 34.5896 166.939 34.4961 166.801 34.3824C166.739 34.3306 166.671 34.2743 166.591 34.21C166.189 34.5306 166.073 34.6412 165.749 34.9488L165.68 35.0155L165.094 35.0158ZM166.694 32.2394C166.746 32.9762 166.953 33.6791 167.589 34.1247C167.76 34.2617 168.175 34.5186 168.776 34.5186C168.999 34.5186 169.619 34.4676 170.066 33.9705C170.582 33.4048 170.944 32.2396 170.944 30.4915V30.4782C170.944 30.2693 170.947 28.8951 170.394 28.0922C170.291 27.9553 170.118 27.7493 169.756 27.5783C169.619 27.5095 169.378 27.4068 168.999 27.4068C168.535 27.4068 168.07 27.5953 167.726 27.8869C166.711 28.7435 166.694 30.3885 166.694 31.6225V32.2394ZM68.579 27.2523C68.9419 27.0226 68.9728 26.9971 69.1565 26.8444L69.1812 26.8238C69.8004 26.2927 69.9726 25.6073 70.0069 25.3161C70.0069 25.1789 70.0069 24.9902 69.9726 24.6816C69.7489 24.9219 69.5252 25.11 69.1983 25.11C69.0433 25.0929 68.9057 25.059 68.7854 24.973C68.4756 24.7674 68.2865 24.3906 68.2865 23.996C68.2865 23.8763 68.2865 23.739 68.3724 23.5166C68.4756 23.2767 68.7681 22.7795 69.5079 22.7795C69.6284 22.7795 69.9207 22.7965 70.196 22.9852C70.695 23.2938 70.9185 23.979 70.9185 24.5789C70.9185 25.5214 70.4196 26.4642 69.7143 27.0469C69.5422 27.1838 69.2324 27.3893 68.7509 27.6465L68.579 27.2523ZM77.916 26.8238H78.3805V29.2745H77.7784C77.7095 29.0178 77.6234 28.7263 77.5201 28.4864C77.0557 27.4584 76.2471 27.3383 75.7999 27.3383H75.7808C75.5602 27.3378 75.0145 27.3365 74.6471 27.8523C74.5095 28.058 74.4406 28.2637 74.4406 28.5036C74.4406 28.6233 74.458 28.8293 74.5956 29.0692C74.8964 29.5784 75.5784 29.7866 76.1362 29.957L76.1386 29.9577L76.1399 29.9581C76.2188 29.9822 76.2952 30.0054 76.3676 30.0288C76.4365 30.046 76.987 30.2174 77.3483 30.406C77.7267 30.6116 78.8106 31.2453 78.8106 32.6508C78.8106 32.9078 78.7762 33.4564 78.3805 34.0392C78.002 34.6216 77.3138 35.204 75.7825 35.204C74.71 35.204 74.067 34.8679 73.6367 34.6428C73.6115 34.6297 73.5869 34.6168 73.5631 34.6044L73.3566 35.0671H72.8063L72.8751 32.0854H73.4945C73.5005 32.1135 73.5068 32.1483 73.5143 32.1888C73.594 32.6188 73.793 33.6949 74.7676 34.2273C75.0944 34.4159 75.4559 34.5015 75.8343 34.5015C76.987 34.5015 77.2622 33.6278 77.2622 33.1993C77.2622 33.045 77.2451 32.7536 77.0386 32.4279C76.7505 31.9447 76.1949 31.7675 75.6431 31.5914C75.5688 31.5677 75.4947 31.544 75.4213 31.5196C74.9397 31.3652 74.4751 31.2112 74.045 30.954C73.6838 30.7315 72.961 30.2173 72.961 29.0516C72.961 28.8459 72.9954 28.3837 73.2535 27.9206C73.9245 26.7211 75.49 26.6699 75.8512 26.6699C76.6082 26.6699 77.0728 26.8584 77.7436 27.1497L77.916 26.8238ZM80.6038 30.9027H86.092V29.6515H80.6038V30.9027ZM89.3 24.2535C89.2313 23.7392 89.1453 23.6707 88.6464 23.6022H87.7345V22.9339H92.7066V23.6022H91.8465C91.2961 23.6193 91.227 23.6878 91.1239 24.2021V28.2463H96.4573V24.2192C96.3885 23.739 96.3196 23.6706 95.838 23.6021H94.8917V22.9337H99.8638V23.6021H99.0552C98.7627 23.6191 98.6251 23.6706 98.5219 23.739C98.3499 23.8763 98.3154 24.0477 98.2983 24.2705V33.7817L98.3003 33.7894C98.3179 33.8616 98.3544 34.0088 98.4704 34.1246C98.694 34.3299 99.1414 34.3299 99.8467 34.3299V34.9814H94.8404V34.296H95.5285C95.7006 34.296 95.9242 34.296 96.0789 34.2443C96.423 34.1246 96.4401 33.8676 96.4574 33.5075V28.966H91.107V33.6615C91.2275 34.1759 91.3306 34.2271 91.8984 34.296H92.707V34.9644H87.6834V34.296H88.6296C89.077 34.2443 89.163 34.1759 89.3006 33.7646L89.3 24.2535ZM103.296 31.2746C103.279 31.0194 103.262 30.7637 103.262 30.4915L108.698 30.4916C108.681 29.9088 108.647 29.2408 108.475 28.7265C108.216 27.9041 107.546 27.1842 106.686 26.8758C106.221 26.7044 105.67 26.7044 105.516 26.7044C105.103 26.7044 104.07 26.7216 103.124 27.407C102.574 27.784 102.315 28.1779 102.178 28.401C101.558 29.4119 101.524 30.6118 101.524 30.9717C101.524 31.3144 101.558 32.9426 102.436 33.9706C102.832 34.4333 103.743 35.1871 105.343 35.1871C105.928 35.1871 107.494 35.1016 108.406 33.6109C108.612 33.2851 108.733 33.011 108.939 32.3085H108.216C108.212 32.323 108.207 32.3396 108.201 32.3582C108.099 32.6928 107.803 33.6673 106.874 34.0732C106.461 34.2617 106.118 34.2617 105.945 34.2617C105.67 34.2617 105.137 34.2446 104.569 33.8507C103.467 33.1187 103.337 31.7253 103.299 31.3147L103.297 31.2934L103.296 31.28L103.296 31.2746ZM106.703 27.8868C107.064 28.4692 107.098 29.1718 107.116 29.8576H103.261C103.537 28.4694 103.778 27.9208 104.431 27.5268C104.603 27.4237 104.93 27.2352 105.446 27.2352C105.911 27.2352 106.204 27.3896 106.358 27.5094C106.548 27.6466 106.668 27.8181 106.703 27.8868ZM115.162 34.3475V34.9983H110.517V34.3475H111.239C111.721 34.2615 111.773 34.176 111.842 33.7133V28.2635C111.807 27.8009 111.756 27.7492 111.326 27.6636H110.534V27.0128C110.706 27.007 110.876 27.003 111.044 26.9992C111.382 26.9915 111.715 26.9839 112.048 26.9611C112.478 26.9268 112.908 26.8755 113.338 26.8238V28.4175C113.682 27.7666 114.009 27.1838 114.698 26.8755C114.801 26.8238 115.093 26.7041 115.437 26.7041C115.558 26.7041 115.867 26.7213 116.143 26.8755C116.435 27.0299 116.762 27.3207 116.762 28.0408C116.762 28.8976 116.194 29.1718 115.85 29.1718C115.455 29.1718 115.024 28.8636 115.024 28.4175C115.033 28.3037 115.087 28.19 115.137 28.0832C115.185 27.9809 115.231 27.8847 115.231 27.8009C115.213 27.6466 115.007 27.5609 114.8 27.5609C114.663 27.5609 114.525 27.6122 114.387 27.6982C114.164 27.8351 113.82 28.2121 113.631 28.8121C113.388 29.5367 113.389 30.322 113.39 31.8075L113.39 31.9252C113.39 31.9831 113.39 32.0422 113.39 32.1022C113.39 32.5653 113.39 33.0108 113.407 33.4564C113.407 33.4771 113.407 33.4975 113.407 33.5178C113.406 33.799 113.405 34.0355 113.613 34.2274C113.786 34.3647 113.992 34.3647 114.233 34.3476L115.162 34.3475ZM120.865 23.7737L119.351 24.5448L119.265 26.9781H117.974V27.6465H119.247V33.0963L119.249 33.1273C119.266 33.4468 119.285 33.8251 119.402 34.1075C119.574 34.4845 120.073 35.0841 121.14 35.0841C121.88 35.0841 122.327 34.8956 122.602 34.7584L123.067 34.5015L123.084 33.9016L123.039 33.9262C122.711 34.1063 122.397 34.2791 122.034 34.2791C120.882 34.2791 120.847 33.0109 120.847 32.1369V27.6466H122.654V26.9782H120.865V23.7737ZM124.911 28.8976C125.823 26.9439 127.836 26.7041 128.559 26.7041C129.023 26.7041 130.348 26.79 131.277 27.8009C131.673 28.2465 132.395 29.2916 132.395 30.8855C132.395 31.6052 132.206 33.6791 130.262 34.7074C129.969 34.8614 129.264 35.1701 128.335 35.1701C127.286 35.1701 126.219 34.7584 125.514 34.0216C125.084 33.5589 124.395 32.5139 124.447 30.8685C124.464 30.5598 124.516 29.72 124.911 28.8976ZM126.89 33.9016C127.062 34.1418 127.543 34.6044 128.387 34.6044C129.092 34.6044 129.625 34.2615 129.987 33.7133C130.621 32.7573 130.609 31.4182 130.606 31.0578C130.606 31.037 130.606 31.0194 130.606 31.0054C130.606 31.0018 130.606 30.9967 130.606 30.9905C130.606 30.9837 130.606 30.9753 130.607 30.9655C130.613 30.6519 130.649 28.893 129.952 27.9723C129.471 27.3382 128.73 27.2523 128.455 27.2523C128.232 27.2523 127.698 27.304 127.234 27.7154C126.339 28.4692 126.184 29.9774 126.202 31.0742C126.202 31.0912 126.202 33.0108 126.89 33.9016ZM135.965 31.7255C135.053 32.771 134.64 33.3363 134.64 34.0217C134.64 34.6046 134.915 34.8273 135.397 35.1532L135.371 35.1739C134.899 35.5427 134.464 35.883 134.227 36.4386C134.072 36.764 134.072 36.9868 134.072 37.1408C134.072 38.4434 135.294 39.06 135.603 39.1977C136.102 39.4372 136.791 39.6433 138.012 39.6433H138.038C138.609 39.6436 140.079 39.6443 141.367 38.6146C142.52 37.6892 142.691 36.5755 142.691 36.0102C142.691 34.6047 141.625 34.1249 141.161 33.9876C140.713 33.8507 140.128 33.8507 140.025 33.8507C139.894 33.8507 139.762 33.8551 139.633 33.8594C139.509 33.8637 139.386 33.8678 139.268 33.8678C138.889 33.8849 138.528 33.9017 138.15 33.9362C138.043 33.9419 137.934 33.9492 137.825 33.9567C137.6 33.972 137.372 33.9875 137.152 33.9875C136.464 33.9875 136.051 33.7989 135.896 33.5761C135.827 33.4734 135.81 33.3709 135.81 33.2507C135.81 32.7538 136.188 32.3766 136.549 32.0337C136.585 32.047 136.622 32.0611 136.661 32.0756C136.968 32.1932 137.359 32.3424 138.064 32.3424C138.408 32.3424 139.457 32.3424 140.335 31.657C141.281 30.9369 141.384 29.9261 141.384 29.5147C141.384 28.6011 141.015 28.1883 140.741 27.8812L140.73 27.8693C140.782 27.8523 141.109 27.7838 141.367 27.7838C141.469 27.7838 141.574 27.7838 141.779 27.8523C141.79 27.8551 141.802 27.8579 141.813 27.8609C141.821 27.8633 141.831 27.8658 141.841 27.8684C141.851 27.8712 141.862 27.874 141.872 27.8768L141.903 27.8854C142.005 27.9136 142.113 27.9429 142.209 27.9553C142.485 27.9553 142.503 27.6124 142.503 27.5268C142.503 27.0299 142.141 26.824 141.711 26.824C141.126 26.824 140.73 27.1327 140.335 27.4585C139.715 27.0301 139.405 26.8586 138.683 26.7902C138.494 26.7555 138.304 26.7385 138.098 26.7385C136.343 26.7385 135.466 27.7668 135.139 28.3664C134.863 28.8636 134.829 29.3605 134.829 29.5661C134.829 29.8402 134.881 30.697 135.483 31.3141C135.569 31.4 135.724 31.537 135.965 31.7255ZM135.792 37.8952C135.569 37.5865 135.466 37.2436 135.466 36.8666C135.466 36.2325 135.741 35.7869 136.102 35.29C136.391 35.2984 136.676 35.3112 136.961 35.3239C137.252 35.337 137.544 35.35 137.84 35.3584C137.957 35.3613 138.095 35.3622 138.246 35.3632C139.03 35.3689 140.177 35.377 140.696 35.6501C140.919 35.7698 141.35 36.1127 141.367 36.8153C141.367 37.861 140.335 38.5631 139.371 38.8205C139.182 38.872 138.803 38.9575 138.27 38.9575C136.911 38.9575 136.119 38.3579 135.792 37.8952ZM138.201 31.7597C137.462 31.7597 136.859 31.2115 136.618 30.5432C136.532 30.3372 136.446 29.9261 136.481 29.3433C136.532 28.2978 136.997 27.7324 137.427 27.4922C137.737 27.3207 137.995 27.304 138.132 27.304C138.924 27.304 139.75 27.9723 139.75 29.6174C139.75 30.6457 139.319 31.2453 138.958 31.5198C138.666 31.7425 138.339 31.7597 138.201 31.7597ZM146.038 31.28C146.021 31.0229 146.002 30.7658 146.002 30.4916H151.439C151.422 29.9088 151.388 29.2408 151.215 28.7265C150.958 27.9041 150.286 27.1842 149.426 26.8758C148.962 26.7044 148.411 26.7044 148.257 26.7044C147.844 26.7044 146.811 26.7216 145.865 27.407C145.315 27.784 145.056 28.1779 144.919 28.401C144.299 29.4119 144.265 30.6118 144.265 30.9717C144.265 31.3144 144.299 32.9426 145.176 33.9706C145.572 34.4333 146.485 35.1871 148.084 35.1871C148.67 35.1871 150.235 35.1016 151.146 33.6109C151.353 33.2851 151.474 33.011 151.681 32.3085H150.958C150.954 32.3231 150.948 32.34 150.943 32.359C150.841 32.6945 150.544 33.6677 149.616 34.0732C149.203 34.2617 148.859 34.2617 148.687 34.2617C148.411 34.2617 147.878 34.2446 147.311 33.8507C146.21 33.1195 146.079 31.7283 146.04 31.3161C146.039 31.303 146.038 31.291 146.038 31.28ZM149.856 29.8576C149.839 29.1718 149.805 28.4692 149.443 27.8868C149.409 27.8181 149.289 27.6466 149.1 27.5094C148.944 27.3896 148.653 27.2352 148.187 27.2352C147.671 27.2352 147.344 27.4237 147.173 27.5268C146.52 27.9208 146.278 28.4694 146.002 29.8576H149.856ZM153.808 27.0019H153.807C153.659 27.0052 153.511 27.0084 153.361 27.0128V27.6636H154.033C154.41 27.6636 154.652 27.7666 154.634 28.4692V33.4906C154.634 33.4906 154.634 33.4969 154.635 33.503C154.64 33.5967 154.664 34.1342 154.324 34.2791C154.238 34.3134 154.17 34.3301 153.947 34.3301H153.344L153.327 34.9817H157.388V34.3476C156.871 34.3647 156.545 34.3476 156.389 34.1932C156.252 34.0737 156.234 33.8018 156.217 33.546V33.5419V29.5147C156.222 29.4692 156.226 29.4264 156.231 29.3851C156.255 29.1624 156.273 28.9919 156.389 28.7608C156.716 28.075 157.559 27.6124 158.315 27.6124C158.85 27.6124 159.211 27.7838 159.468 28.2637C159.675 28.6579 159.71 29.1719 159.71 29.6346V33.4907C159.693 34.3724 159.474 34.3673 158.724 34.3501C158.702 34.3496 158.678 34.3492 158.655 34.3486C158.639 34.3483 158.624 34.3479 158.608 34.3476V34.9985H162.566V34.3476C162.119 34.3648 161.74 34.3648 161.602 34.2963C161.293 34.1498 161.322 33.6181 161.327 33.5491V33.5437V33.542C161.344 32.6509 161.361 31.7427 161.344 30.8516C161.344 30.2515 161.327 29.6517 161.293 29.0518C161.291 29.0452 161.291 29.0378 161.29 29.0297C161.288 29.0106 161.287 28.9874 161.284 28.9603V28.9591C161.27 28.7547 161.239 28.3397 161.052 27.9378C160.673 27.0983 159.779 26.7041 158.867 26.7041C158.574 26.7041 157.835 26.7555 157.146 27.2182C156.753 27.4568 156.461 27.7795 156.154 28.1198L156.149 28.1267L156.132 26.8413C155.804 26.8755 155.46 26.9098 155.116 26.944C154.689 26.9825 154.253 26.9921 153.808 27.0019ZM178.828 26.7041C178.105 26.7041 176.092 26.9439 175.18 28.8976C174.784 29.72 174.733 30.5598 174.715 30.8685C174.664 32.5139 175.351 33.5589 175.782 34.0216C176.487 34.7584 177.555 35.1701 178.604 35.1701C179.532 35.1701 180.238 34.8614 180.53 34.7074C182.474 33.6791 182.663 31.6052 182.663 30.8855C182.663 29.2916 181.94 28.2465 181.546 27.8009C180.617 26.79 179.291 26.7041 178.828 26.7041ZM178.655 34.6044C177.812 34.6044 177.33 34.1418 177.159 33.9016C176.47 33.0108 176.47 31.0912 176.47 31.0742C176.453 29.9774 176.608 28.4692 177.502 27.7154C177.968 27.304 178.501 27.2523 178.724 27.2523C178.999 27.2523 179.738 27.3382 180.221 27.9723C180.918 28.893 180.881 30.6511 180.875 30.9647C180.875 30.9768 180.874 30.9868 180.874 30.9946C180.874 30.9989 180.874 31.0026 180.874 31.0054C180.874 31.0189 180.874 31.0357 180.874 31.0554V31.0577C180.878 31.4181 180.89 32.7572 180.255 33.7133C179.894 34.2615 179.361 34.6044 178.655 34.6044ZM190.001 26.8238H190.465V29.2745H189.864C189.794 29.0178 189.708 28.7263 189.605 28.4864C189.141 27.4584 188.332 27.3383 187.885 27.3383H187.865C187.645 27.3378 187.099 27.3365 186.732 27.8523C186.594 28.058 186.526 28.2637 186.526 28.5036C186.526 28.6233 186.543 28.8293 186.68 29.0692C186.981 29.5781 187.663 29.7865 188.22 29.9567C188.254 29.9672 188.289 29.9777 188.322 29.9881C188.367 30.0018 188.41 30.0153 188.452 30.0288C188.521 30.046 189.072 30.2174 189.434 30.406C189.811 30.6116 190.895 31.2453 190.895 32.6508C190.895 32.9078 190.861 33.4564 190.465 34.0392C190.087 34.6216 189.398 35.204 187.868 35.204C186.794 35.204 186.152 34.8679 185.721 34.6429C185.697 34.6297 185.671 34.6168 185.647 34.6044L185.441 35.0671H184.891L184.96 32.0854H185.58C185.585 32.1135 185.592 32.1483 185.599 32.1888C185.679 32.6188 185.878 33.6949 186.852 34.2273C187.179 34.4159 187.54 34.5015 187.919 34.5015C189.072 34.5015 189.347 33.6278 189.347 33.1993C189.347 33.045 189.33 32.7536 189.124 32.4279C188.835 31.9447 188.28 31.7675 187.728 31.5914L187.727 31.5911C187.653 31.5677 187.579 31.5439 187.506 31.5196C187.024 31.3652 186.56 31.2112 186.13 30.954C185.769 30.7315 185.046 30.2173 185.046 29.0516C185.046 28.8459 185.08 28.3837 185.338 27.9206C186.01 26.7211 187.575 26.6699 187.936 26.6699C188.693 26.6699 189.158 26.8584 189.828 27.1497L190.001 26.8238ZM199.69 33.8506C199.897 33.5248 200.051 33.1477 200.293 32.3254L199.604 32.3252C199.501 32.6849 199.382 33.0791 199.191 33.4045C198.624 34.3299 197.798 34.45 197.368 34.45C196.715 34.45 196.215 34.1588 196.026 34.0391C195.338 33.5417 195.115 32.8735 194.993 32.0508C194.976 31.9307 194.925 31.4338 194.925 30.9882C194.925 29.463 195.252 28.6407 195.665 28.075C196.249 27.3207 196.989 27.2352 197.368 27.2352C198.245 27.218 198.504 27.7154 198.504 28.0921C198.504 28.3148 198.451 28.4522 198.177 28.7947V28.7996L198.178 28.8052C198.178 28.8095 198.178 28.814 198.18 28.8188C198.18 28.8242 198.181 28.83 198.181 28.8361L198.183 28.8507C198.198 29.024 198.236 29.4247 198.555 29.6515C198.727 29.7889 198.968 29.8059 199.037 29.8059C199.246 29.8059 199.396 29.7456 199.485 29.7097L199.501 29.7029C199.914 29.4977 200.051 29.1376 200.051 28.6749C200.051 28.4864 200.034 28.058 199.724 27.6808C199.398 27.2523 198.572 26.7041 197.248 26.7041C195.75 26.7041 194.821 27.3724 194.426 27.7492C193.773 28.3662 193.36 29.2744 193.187 30.2001C193.101 30.6457 193.101 31.0229 193.101 31.1939C193.101 31.6223 193.17 33.216 194.288 34.2273C195.251 35.1013 196.611 35.1869 197.007 35.1869C198.074 35.1869 199.14 34.7417 199.69 33.8506ZM25.2568 50.4226C27.8945 50.9746 31.6855 50.9915 31.7041 50.9916C31.7224 50.9915 35.5134 50.9746 38.1512 50.4226C40.7954 49.8699 43.4722 48.9759 45.9041 47.4643C48.3361 45.9521 49.2666 44.082 49.2828 43.6104C49.2828 43.6104 47.7801 42.3116 47.2916 41.936C46.4264 41.2695 44.8596 40.4565 44.8596 40.4565C44.8596 40.4565 43.9455 41.7247 42.0684 42.4559C40.1915 43.1879 38.5755 43.757 35.7192 44.0983C33.0559 44.4166 31.8543 44.3819 31.7041 44.3757C31.7149 44.3753 31.7203 44.375 31.7203 44.375H31.6878C31.6878 44.375 31.6932 44.3753 31.7041 44.3757C31.5537 44.3819 30.352 44.4166 27.6888 44.0983C24.8324 43.7568 23.2165 43.1878 21.3395 42.4559C19.4626 41.7247 18.5483 40.4565 18.5483 40.4565C18.5483 40.4565 16.9815 41.2695 16.1164 41.936C15.6279 42.3116 14.125 43.6104 14.125 43.6104C14.1414 44.082 15.0719 45.9521 17.5037 47.4643C19.9358 48.9759 22.6126 49.8699 25.2568 50.4226ZM31.7278 36.8636C31.3454 36.8649 28.3218 36.8845 26.398 37.1884C26.3468 37.1964 26.2812 37.2064 26.2024 37.2183C25.3055 37.3539 22.7112 37.746 20.5058 38.5376C18.1065 39.3997 16.3438 40.684 15.7888 41.0909C15.2338 41.497 14.1401 42.3911 14.1401 42.3911C14.434 40.0171 18.4817 38.278 19.1347 38.0176C19.1723 38.0027 19.2228 37.9816 19.2859 37.9554C20.3189 37.525 24.7383 35.6836 31.7278 35.6766C38.7168 35.6836 43.1351 37.5244 44.1687 37.9549L44.1701 37.9555C44.2331 37.9817 44.2834 38.0027 44.3209 38.0176C44.9738 38.278 49.0215 40.0171 49.3153 42.3911C49.3153 42.3911 48.2218 41.497 47.6669 41.0909C47.112 40.684 45.349 39.3997 42.9497 38.5376C40.7445 37.746 38.1506 37.3539 37.2535 37.2184C37.1746 37.2064 37.1087 37.1964 37.0575 37.1884C35.1337 36.8845 32.1104 36.8649 31.7278 36.8636ZM31.7278 35.6766H31.6876H31.768H31.7278ZM56.8399 22.2793C56.8399 22.2793 54.5876 26.7993 53.5592 29.482C53.5592 29.482 52.4983 27.9539 51.5842 27.3684C51.5842 27.3684 52.7259 29.736 52.6554 30.3278L53.1449 30.5877C53.1449 30.5877 52.2748 32.7765 51.5893 35.1288C51.5893 35.1288 51.3946 34.5758 49.9031 33.9257L51.7085 33.6653L52.6339 30.4024C52.6339 30.4024 51.2517 29.4819 50.9691 29.2755C50.9653 29.2727 50.9615 29.2699 50.9575 29.267C50.9531 29.2639 50.9488 29.2607 50.9442 29.2575C50.9342 29.2503 50.9237 29.2428 50.913 29.2351C50.609 29.0178 50.0364 28.6087 49.9244 27.6934C49.8051 26.7179 50.1214 26.0026 50.7517 25.6987C51.3821 25.3953 52.0361 25.5679 52.3186 25.7203C52.3186 25.7203 52.0023 25.0921 52.1442 24.377C52.286 23.6614 52.7205 23.4115 52.9928 23.2816C53.2652 23.1514 53.7407 23.0052 54.3853 23.2712C54.7769 23.4326 54.923 23.7164 54.923 23.7164C54.923 23.7164 55.0812 23.5445 55.1035 23.4225C55.1525 23.1544 55.5278 22.6087 55.8656 22.4357C56.2033 22.2631 56.5248 22.203 56.8399 22.2793ZM9.84905 29.482C8.82055 26.7993 6.56836 22.2793 6.56836 22.2793C6.88347 22.203 7.20481 22.2631 7.54255 22.4357C7.88015 22.6087 8.25566 23.1544 8.3046 23.4225C8.32694 23.5445 8.48507 23.7164 8.48507 23.7164C8.48507 23.7164 8.63088 23.4326 9.02251 23.2712C9.66731 23.0052 10.1427 23.1514 10.4152 23.2816C10.6875 23.4115 11.1221 23.6614 11.264 24.377C11.4057 25.0921 11.0896 25.7203 11.0896 25.7203C11.372 25.5679 12.026 25.3953 12.6564 25.6987C13.2869 26.0026 13.603 26.7179 13.4837 27.6934C13.372 28.6081 12.8001 29.0171 12.4963 29.2344C12.4759 29.2489 12.4568 29.2625 12.4391 29.2755C12.1567 29.4819 10.7743 30.4024 10.7743 30.4024L11.6997 33.6653L13.5051 33.9257C12.0138 34.5758 11.8188 35.1288 11.8188 35.1288C11.1333 32.7765 10.2632 30.5877 10.2632 30.5877L10.7528 30.3278C10.6825 29.736 11.824 27.3684 11.824 27.3684C10.9099 27.9539 9.84905 29.482 9.84905 29.482ZM21.4995 30.2375C20.8575 30.4067 20.1751 30.65 19.4843 30.9634C19.8553 30.4713 20.7032 29.3251 20.7032 29.3251L19.2754 25.7375C19.2754 25.7375 18.1465 26.0004 17.4254 26.151C16.7052 26.3002 16.0542 26.0926 15.4195 25.3402C14.7861 24.5881 14.6371 23.4705 15.0094 22.601C15.3775 21.7396 15.9635 21.5938 15.9635 21.5938C15.9635 21.5938 15.5656 21.5015 15.2237 21.0062C14.7558 20.3278 14.6472 19.6141 15.1105 18.7255C15.5729 17.8374 16.8021 18.0535 16.8021 18.0535C16.6995 17.8814 16.2894 16.8969 16.6114 16.1064C16.7502 15.764 17.1373 15.3285 17.4442 15.244L17.5037 15.2387C17.8116 15.1581 18.3659 15.3409 18.6587 15.5676C19.3356 16.09 19.4776 17.1464 19.4757 17.3467C19.4757 17.3467 20.4295 16.5447 21.2773 17.0811C22.1259 17.6175 22.3922 18.2894 22.3298 19.1097C22.2839 19.7093 21.9863 19.9879 21.9863 19.9879C21.9863 19.9879 22.5665 19.8209 23.3195 20.3818C24.0798 20.9471 24.5144 21.9881 24.346 22.9552C24.1768 23.9233 23.7186 24.4287 23.0205 24.6601C22.3211 24.891 21.2122 25.2285 21.2122 25.2285L21.787 29.0452C21.787 29.0452 23.0981 29.6119 23.6671 29.8519C22.9116 29.9262 22.1962 30.0464 21.5556 30.2211L21.4995 30.2375ZM20.1822 25.3884L21.1234 25.1191L22.4899 22.1087L19.9389 24.4266L19.8963 24.4381L16.5216 23.7106L19.2211 25.6293L20.171 25.3912L20.1822 25.3884ZM39.7648 29.8517C40.5202 29.9261 41.2358 30.0461 41.8761 30.221L41.9325 30.2373C42.5745 30.4065 43.2566 30.6498 43.9474 30.9633C43.5764 30.4712 42.7285 29.3249 42.7285 29.3249L44.1563 25.7373C44.1563 25.7373 45.2853 26.0002 46.0064 26.1508C46.7267 26.3 47.3777 26.0925 48.0123 25.34C48.6455 24.588 48.7946 23.4704 48.4222 22.6008C48.0543 21.7395 47.4681 21.5937 47.4681 21.5937C47.4681 21.5937 47.8658 21.5014 48.2081 21.006C48.6758 20.3277 48.7844 19.614 48.3211 18.7254C47.8587 17.8373 46.6295 18.0534 46.6295 18.0534C46.7322 17.8812 47.1422 16.8967 46.8203 16.1062C46.6814 15.7639 46.2943 15.3283 45.9876 15.2439L45.928 15.2385C45.62 15.1579 45.0654 15.3408 44.7729 15.5675C44.096 16.0899 43.954 17.1462 43.9559 17.3466C43.9559 17.3466 43.0022 16.5445 42.1546 17.081C41.306 17.6172 41.0397 18.2891 41.1019 19.1096C41.148 19.7092 41.4454 19.9877 41.4454 19.9877C41.4454 19.9877 40.8654 19.8208 40.1126 20.3816C39.3522 20.947 38.9173 21.988 39.0858 22.955C39.2549 23.9232 39.7132 24.4287 40.4114 24.66C41.1105 24.891 42.2195 25.2283 42.2195 25.2283L41.6448 29.045C41.6448 29.045 40.3336 29.6118 39.7648 29.8517ZM43.2613 25.3913L43.2503 25.3884L42.3087 25.1191L40.9423 22.1087L43.4932 24.4266L43.536 24.4381L46.9107 23.7106L44.211 25.6293L43.2613 25.3913Z" fill="#1A1A1A"/>
</g>
</g>
<defs>
<clipPath id="clip0_101_2566">
<rect width="210.736" height="51" fill="white"/>
</clipPath>
</defs>
</svg>
